<svg width="189" height="254" viewBox="0 0 189 254" fill="none" xmlns="http://www.w3.org/2000/svg">
<path d="M180.693 36.9674L153.923 6.92451L38.694 6.84375L10.2138 37.0482L8.60352 247.349L67.0736 248.075L67.1743 253.244L179.485 253.163L179.083 252.76H179.686L180.693 36.9674Z" fill="#FFFF00"/>
<path d="M103.252 68.4434H86.043V82.1324H103.252V68.4434Z" fill="black"/>
<path d="M103.252 95.8237H86.043V109.513H103.252V95.8237Z" fill="black"/>
<path d="M137.809 22.1021H51.704C49.4648 22.1021 47.3274 22.9926 45.9026 24.3689L30.4321 40.723C29.5161 41.6945 29.0072 42.9089 29.0072 44.1233L28.6001 230.333H43.0527L43.4598 46.0664L55.2662 33.5175H134.145L144.323 44.6091V144.92L87.6318 144.838V156.335L144.323 156.416V230.333H158.776V42.828C158.776 41.6136 158.267 40.3992 157.351 39.4276L143.61 24.4499C142.287 22.9926 140.15 22.1021 137.809 22.1021Z" fill="black"/>
<path d="M129.258 131.398C130.581 130.346 131.395 128.808 131.395 127.35L130.784 50.9231C130.784 47.7656 127.528 45.2559 123.558 45.2559H64.9334C62.9996 45.2559 61.1676 45.8226 59.8444 46.956C58.5213 48.0086 57.707 49.4658 57.707 51.0041V156.253H72.1597V133.179L124.271 133.098C126.103 133.098 127.934 132.532 129.258 131.398ZM72.0579 121.683V56.6714H116.332L116.841 121.602L72.0579 121.683Z" fill="black"/>
<path d="M186.968 32.6271L159.895 2.50978C158.572 0.971532 156.333 0.0809658 153.992 0.0809658L37.4547 0C35.2156 0 33.0782 0.809612 31.7551 2.2669L2.95159 32.5462C2.03558 33.5177 1.52669 34.7321 1.52669 35.9465L0 246.768C0 249.926 3.15516 252.516 7.12454 252.516L66.1565 253.245H66.2582C68.192 253.245 70.024 252.678 71.3472 251.626C72.7721 250.573 73.4844 249.035 73.4844 247.497L73.2811 179.895H87.4284L87.9375 252.598L102.39 252.516L101.881 179.895H116.028L116.639 247.173C116.639 250.33 119.896 252.84 123.865 252.84L180.149 252.516C184.118 252.516 187.274 249.926 187.274 246.768L188.292 35.8655C188.292 34.8131 187.884 33.5987 186.968 32.6271ZM172.923 241.182L130.99 241.425L130.379 174.146C130.379 170.989 127.122 168.479 123.153 168.479L101.779 168.56H94.5525L65.9529 168.641C61.9835 168.641 58.7265 171.232 58.7265 174.39L58.9301 241.83L14.3508 241.263L15.8776 37.9706L41.1188 11.4964L150.328 11.6584L173.94 37.8896L172.923 241.182Z" fill="black"/>
</svg>
