<svg width="200" height="62" viewBox="0 0 200 62" fill="none" xmlns="http://www.w3.org/2000/svg">
<path fill-rule="evenodd" clip-rule="evenodd" d="M35.077 59.8228L24.3393 59.8922L24.2084 42.3878L13.2979 42.4162L13.3373 60L2.06665 59.8243L2.36722 9.25563L7.86998 1.98816L30.1056 2.02375L35.2707 9.24387L35.077 59.8228Z" fill="black" stroke="#FFFF00" stroke-width="2.28683" stroke-miterlimit="22.9256" stroke-linecap="square" stroke-linejoin="round"/>
<path d="M7.57312 54.5095L7.64319 11.2244L10.5856 7.29852H27.0151L29.6348 10.8819V54.4947" stroke="white" stroke-width="3.20157" stroke-miterlimit="22.9256" stroke-linecap="square" stroke-linejoin="round"/>
<path d="M28.7456 36.7533L18.8168 36.7438" stroke="white" stroke-width="3.20157" stroke-miterlimit="22.9256" stroke-linecap="square" stroke-linejoin="round"/>
<path d="M13.0959 36.7246V12.8409L24.2815 12.8455L24.403 31.1676L13.0959 31.1858" stroke="#FFFF00" stroke-width="2.28683" stroke-miterlimit="22.9256" stroke-linecap="square" stroke-linejoin="round"/>
<path d="M18.7531 42.402L18.858 59.8303" stroke="#FFFF00" stroke-width="2.28683" stroke-miterlimit="22.9256" stroke-linecap="square" stroke-linejoin="round"/>
<path d="M18.7239 18.5801H18.727" stroke="white" stroke-width="3.20157" stroke-miterlimit="22.9256" stroke-linecap="square" stroke-linejoin="round"/>
<path d="M18.7297 25.0308H18.7329" stroke="white" stroke-width="3.20157" stroke-miterlimit="22.9256" stroke-linecap="square" stroke-linejoin="round"/>
<path d="M43.3655 30.5524V50.7051H39.168V30.5524H43.3655ZM45.884 42.4608H44.205V38.7586H45.884V34.2165H44.205V30.5524H46.1512C46.9398 30.5524 47.7157 30.9086 48.4789 31.6211C49.2675 32.359 49.6618 33.1224 49.6618 33.9112V38.1478C49.6618 39.4456 49.1149 40.1835 48.021 40.3616V40.5524C49.3947 40.8069 50.0816 41.5575 50.0816 42.8044V47.3463C50.0816 48.1352 49.6872 48.8985 48.8986 49.6365C48.1354 50.3489 47.3595 50.7051 46.5709 50.7051H44.205V47.041H45.884V42.4608ZM61.9492 34.2165H51.0356V30.5524H61.9492V34.2165ZM54.3936 35.0944H58.5912V50.7051H54.3936V35.0944ZM67.2915 30.5524V50.7051H66.6046C65.7906 50.7051 65.0019 50.3489 64.2387 49.6365C63.4755 48.924 63.0939 48.1606 63.0939 47.3463V33.9112C63.0939 33.1224 63.4882 32.359 64.2769 31.6211C65.0401 30.9086 65.816 30.5524 66.6046 30.5524H67.2915ZM69.81 34.2165H68.131V30.5524H70.4969C71.26 30.5524 72.036 30.9214 72.8246 31.6593C73.6132 32.3972 74.0075 33.1478 74.0075 33.9112V47.3463C74.0075 48.1097 73.6132 48.8603 72.8246 49.5982C72.0614 50.3362 71.2855 50.7051 70.4969 50.7051H68.131V47.0029H69.81V34.2165ZM107.931 47.0029V34.2165H106.252V30.5524H108.618C109.381 30.5524 110.157 30.9214 110.946 31.6593C111.735 32.3972 112.129 33.1478 112.129 33.9112V47.3463C112.129 48.1097 111.735 48.8603 110.946 49.5982C110.183 50.3362 109.407 50.7051 108.618 50.7051H106.252V47.0029H107.931ZM105.413 58.7204H101.215V30.5524H105.413V58.7204ZM118.234 47.0029H119.913V50.7051H117.548C116.733 50.7051 115.945 50.3489 115.182 49.6365C114.418 48.924 114.037 48.1606 114.037 47.3463V30.5524H118.234V47.0029ZM120.753 50.7051V30.5524H124.95V50.7051H120.753ZM131.056 30.5524V50.7051H130.369C129.555 50.7051 128.766 50.3489 128.003 49.6365C127.24 48.924 126.858 48.1606 126.858 47.3463V33.9112C126.858 33.1224 127.253 32.359 128.041 31.6211C128.805 30.9086 129.58 30.5524 130.369 30.5524H131.056ZM133.574 34.2165H131.896V30.5524H134.261C135.025 30.5524 135.8 30.9214 136.589 31.6593C137.378 32.3972 137.772 33.1478 137.772 33.9112V47.3463C137.772 48.1097 137.378 48.8603 136.589 49.5982C135.826 50.3362 135.05 50.7051 134.261 50.7051H131.896V47.0029H133.574V34.2165ZM146.587 47.0029V34.2165H144.908V30.5524H147.274C148.037 30.5524 148.813 30.9214 149.601 31.6593C150.39 32.3972 150.784 33.1478 150.784 33.9112V47.3463C150.784 48.1097 150.39 48.8603 149.601 49.5982C148.838 50.3362 148.062 50.7051 147.274 50.7051H144.908V47.0029H146.587ZM144.068 58.7204H139.871V30.5524H144.068V58.7204ZM156.89 47.0029H158.569V50.7051H156.203C155.389 50.7051 154.6 50.3489 153.837 49.6365C153.074 48.924 152.692 48.1606 152.692 47.3463V30.5524H156.89V47.0029ZM159.408 50.7051V30.5524H163.606V50.7051H159.408ZM175.664 34.2165H164.751V30.5524H175.664V34.2165ZM168.109 35.0944H172.306V50.7051H168.109V35.0944ZM183.525 47.0029V45.1707H187.685V47.3463C187.685 48.1352 187.303 48.8985 186.54 49.6365C185.777 50.3489 185.001 50.7051 184.212 50.7051H181.846V47.0029H183.525ZM183.525 39.5982V34.2165H181.846V30.5524H184.212C184.975 30.5524 185.751 30.9214 186.54 31.6593C187.303 32.3972 187.685 33.1478 187.685 33.9112L187.723 43.3005H181.846V39.5982H183.525ZM181.007 30.5524V50.7051H180.32C179.506 50.7051 178.717 50.3489 177.954 49.6365C177.191 48.924 176.809 48.1606 176.809 47.3463V33.9112C176.809 33.1224 177.203 32.359 177.992 31.6211C178.755 30.9086 179.531 30.5524 180.32 30.5524H181.007ZM199.781 34.2165H188.868V30.5524H199.781V34.2165ZM192.226 35.0944H196.423V50.7051H192.226V35.0944ZM91.3091 50.7051V11.2163H98.2007V50.7051H91.3091ZM89.9735 11.2163V17.2011H83.6695V50.7051H76.8313V11.2163H89.9735Z" fill="#FEFEFE"/>
<path d="M21.4812 44.8357L21.5861 59.8118" stroke="black" stroke-width="2.28683" stroke-miterlimit="22.9256" stroke-linecap="square" stroke-linejoin="round"/>
<path d="M21.2628 44.8357L21.5338 59.8118" stroke="black" stroke-width="2.28683" stroke-miterlimit="22.9256" stroke-linecap="square" stroke-linejoin="round"/>
<path d="M15.9928 44.8727L16.0977 59.8488" stroke="black" stroke-width="2.28683" stroke-miterlimit="22.9256" stroke-linecap="square" stroke-linejoin="round"/>
<path d="M107.309 15.3946L109.542 27.5561H107.069L105.26 15.3946H107.309ZM106.238 25.2028H103.949L103.599 27.5561H101.125L103.377 15.3946H104.78L105.094 17.5175L104.226 23.3431H105.961L106.238 25.2028ZM114.988 22.3887H113.031V20.5291H114.988V17.2378H113.031V15.3946H115.394C115.812 15.3946 116.243 15.5756 116.686 15.9377C117.141 16.2997 117.369 16.6673 117.369 17.0403V19.9531C117.369 20.7211 116.901 21.1764 115.966 21.319V21.4342C116.901 21.5768 117.369 22.0321 117.369 22.8001V25.861C117.369 26.256 117.148 26.6345 116.705 26.9965C116.274 27.3695 115.837 27.5561 115.394 27.5561H113.031V25.6965H114.988V22.3887ZM112.551 15.3946V27.5561H110.188V15.3946H112.551ZM124.55 15.3946V17.2378H118.107V15.3946H124.55ZM120.138 17.6656H122.519V27.5561H120.138V17.6656ZM130.383 17.2378H128.223V15.3946H130.789C131.232 15.3946 131.669 15.5756 132.1 15.9377C132.543 16.3107 132.764 16.6947 132.764 17.0896V25.861C132.764 26.256 132.543 26.6345 132.1 26.9965C131.669 27.3695 131.232 27.5561 130.789 27.5561H128.223V25.6965H130.383V17.2378ZM127.743 15.3946V27.5561H127.356C126.912 27.5561 126.476 27.3751 126.045 27.013C125.602 26.64 125.38 26.256 125.38 25.861V17.0896C125.38 16.6947 125.602 16.3107 126.045 15.9377C126.476 15.5756 126.912 15.3946 127.356 15.3946H127.743ZM136.493 20.5291H138.413V22.3887H136.493V20.5291ZM138.413 25.6965V27.5561H135.847C135.404 27.5561 134.967 27.3751 134.536 27.013C134.093 26.64 133.872 26.256 133.872 25.861V24.0179H136.234V25.6965H138.413ZM138.874 27.5561V15.3946H139.169C139.563 15.3946 139.963 15.5537 140.369 15.8719C140.775 16.19 140.978 16.5246 140.978 16.8757V20.1177C140.978 20.743 140.609 21.1489 139.871 21.3354V21.4177C140.794 21.5823 141.255 22.0376 141.255 22.7836V25.861C141.255 26.256 141.034 26.6345 140.591 26.9965C140.16 27.3695 139.723 27.5561 139.28 27.5561H138.874ZM138.413 15.3946V17.2378H136.234V18.7847H134.13V16.8757C134.13 16.5246 134.333 16.1846 134.739 15.8554C135.145 15.5482 135.545 15.3946 135.939 15.3946H138.413ZM147.901 15.3946L150.134 27.5561H147.661L145.852 15.3946H147.901ZM146.83 25.2028H144.541L144.19 27.5561H141.717L143.969 15.3946H145.372L145.685 17.5175L144.818 23.3431H146.553L146.83 25.2028ZM155.783 27.5561V15.3946H158.164V27.5561H155.783ZM155.321 15.3946V17.2378H153.143V27.5561H150.78V15.3946H155.321ZM163.812 20.9076V22.7672H161.247C160.804 22.7672 160.367 22.5862 159.936 22.2241C159.493 21.8511 159.271 21.4671 159.271 21.0722V15.3946H161.634V20.9076H163.812ZM164.274 27.5561V15.3946H166.655V27.5561H164.274ZM173.485 15.3946L175.719 27.5561H173.245L171.436 15.3946H173.485ZM172.414 25.2028H170.125L169.775 27.5561H167.301L169.553 15.3946H170.956L171.27 17.5175L170.402 23.3431H172.138L172.414 25.2028ZM183.748 19.7063H181.367V17.2378H179.207V15.3946H181.773C182.216 15.3946 182.653 15.5756 183.084 15.9377C183.527 16.3107 183.748 16.6947 183.748 17.0896V19.7063ZM178.727 15.3946V27.5561H178.34C177.897 27.5561 177.46 27.3751 177.029 27.013C176.586 26.64 176.365 26.256 176.365 25.861V17.0896C176.365 16.6947 176.586 16.3107 177.029 15.9377C177.46 15.5756 177.897 15.3946 178.34 15.3946H178.727ZM179.207 27.5561V25.6965H181.367V22.6685H183.748V25.861C183.748 26.245 183.527 26.629 183.084 27.013C182.641 27.397 182.204 27.578 181.773 27.5561H179.207ZM191.021 15.3946V17.2378H184.579V15.3946H191.021ZM186.61 17.6656H188.991V27.5561H186.61V17.6656ZM191.852 15.3946H194.215V27.5561H191.852V15.3946ZM194.695 25.7952V20.8747L196.356 17.139V22.0595L194.695 25.7952ZM196.817 27.5561V15.3946H199.18V27.5561H196.817Z" fill="#FFFF00"/>
</svg>
