<svg width="174" height="51" viewBox="0 0 174 51" fill="none" xmlns="http://www.w3.org/2000/svg">
<path d="M40.6764 20L44.5324 43.6197H40.2619L37.1388 20H40.6764ZM38.828 39.0491H34.8759L34.2704 43.6197H30L33.8879 20H36.3101L36.8519 24.1231L35.3541 35.4374H38.3498L38.828 39.0491Z" fill="white"/>
<path d="M48.8347 26.7438V43.6196H45.3291V26.7438H48.8347ZM50.9383 36.716H49.5359V33.6155H50.9383V29.8122H49.5359V26.7438H51.1613C51.8198 26.7438 52.4679 27.0423 53.1052 27.6389C53.7639 28.2568 54.0932 28.8961 54.0932 29.5566V33.1043C54.0932 34.1908 53.6363 34.8088 52.7229 34.9581V35.1178C53.8702 35.3308 54.4437 35.9594 54.4437 37.0036V40.8069C54.4437 41.4675 54.1145 42.1067 53.4559 42.7249C52.8185 43.3215 52.1704 43.6196 51.5119 43.6196H49.5359V40.5514H50.9383V36.716Z" fill="white"/>
<path d="M64.3551 29.8122H55.2405V26.7438H64.3551V29.8122ZM58.0452 30.5472H61.5508V43.6196H58.0452V30.5472Z" fill="white"/>
<path d="M68.817 26.7438V43.6196H68.2435C67.5634 43.6196 66.9049 43.3215 66.2675 42.7249C65.6302 42.1282 65.3114 41.4888 65.3114 40.8069V29.5566C65.3114 28.8961 65.6409 28.2568 66.2994 27.6389C66.9369 27.0423 67.5847 26.7438 68.2435 26.7438H68.817ZM70.9206 29.8122H69.5182V26.7438H71.4942C72.1316 26.7438 72.7795 27.0529 73.4382 27.6709C74.0968 28.2888 74.426 28.9174 74.426 29.5566V40.8069C74.426 41.4462 74.0968 42.0747 73.4382 42.6927C72.8008 43.3106 72.1529 43.6196 71.4942 43.6196H69.5182V40.5194H70.9206V29.8122Z" fill="white"/>
<path d="M84.9749 43.6197V20H89.086V43.6197H84.9749ZM84.1781 20V23.5797H80.4178V43.6197H76.3384V20H84.1781Z" fill="white"/>
<path d="M96.7666 40.5194V29.8122H95.3644V26.7438H97.3404C97.9776 26.7438 98.6257 27.0529 99.2842 27.6709C99.943 28.2888 100.272 28.9174 100.272 29.5566V40.8069C100.272 41.4462 99.943 42.0747 99.2842 42.6927C98.647 43.3106 97.9989 43.6196 97.3404 43.6196H95.3644V40.5194H96.7666ZM94.6632 50.3316H91.1576V26.7438H94.6632V50.3316Z" fill="white"/>
<path d="M105.371 40.5194H106.773V43.6196H104.798C104.118 43.6196 103.459 43.3215 102.822 42.7249C102.184 42.1282 101.866 41.4888 101.866 40.8069V26.7438H105.371V40.5194ZM107.475 43.6196V26.7438H110.98V43.6196H107.475Z" fill="white"/>
<path d="M116.08 26.7438V43.6196H115.506C114.826 43.6196 114.167 43.3215 113.53 42.7249C112.893 42.1282 112.574 41.4888 112.574 40.8069V29.5566C112.574 28.8961 112.903 28.2568 113.562 27.6389C114.199 27.0423 114.847 26.7438 115.506 26.7438H116.08ZM118.183 29.8122H116.781V26.7438H118.757C119.394 26.7438 120.042 27.0529 120.701 27.6709C121.359 28.2888 121.689 28.9174 121.689 29.5566V40.8069C121.689 41.4462 121.359 42.0747 120.701 42.6927C120.063 43.3106 119.415 43.6196 118.757 43.6196H116.781V40.5194H118.183V29.8122Z" fill="white"/>
<path d="M129.051 40.5194V29.8122H127.648V26.7438H129.624C130.262 26.7438 130.909 27.0529 131.568 27.6709C132.227 28.2888 132.556 28.9174 132.556 29.5566V40.8069C132.556 41.4462 132.227 42.0747 131.568 42.6927C130.931 43.3106 130.283 43.6196 129.624 43.6196H127.648V40.5194H129.051ZM126.947 50.3316H123.442V26.7438H126.947V50.3316Z" fill="white"/>
<path d="M137.655 40.5194H139.057V43.6196H137.082C136.402 43.6196 135.743 43.3215 135.106 42.7249C134.468 42.1282 134.149 41.4888 134.149 40.8069V26.7438H137.655V40.5194ZM139.759 43.6196V26.7438H143.264V43.6196H139.759Z" fill="white"/>
<path d="M153.335 29.8122H144.22V26.7438H153.335V29.8122ZM147.025 30.5472H150.53V43.6196H147.025V30.5472Z" fill="white"/>
<path d="M159.9 40.5194V38.9851H163.374V40.8069C163.374 41.4675 163.055 42.1067 162.418 42.7249C161.78 43.3215 161.133 43.6196 160.474 43.6196H158.498V40.5194H159.9ZM159.9 34.3189V29.8122H158.498V26.7438H160.474C161.111 26.7438 161.759 27.0529 162.418 27.6709C163.055 28.2888 163.374 28.9174 163.374 29.5566L163.406 37.4191H158.498V34.3189H159.9ZM157.797 26.7438V43.6196H157.223C156.543 43.6196 155.885 43.3215 155.247 42.7249C154.61 42.1282 154.291 41.4888 154.291 40.8069V29.5566C154.291 28.8961 154.621 28.2568 155.279 27.6389C155.917 27.0423 156.564 26.7438 157.223 26.7438H157.797Z" fill="white"/>
<path d="M173.476 29.8122H164.362V26.7438H173.476V29.8122ZM167.166 30.5472H170.672V43.6196H167.166V30.5472Z" fill="white"/>
<path d="M14.1167 11.7639H11.7639V14.1167H14.1167V11.7639Z" fill="white"/>
<path d="M14.1167 16.4695H11.7639V18.8223H14.1167V16.4695Z" fill="white"/>
<path d="M18.8411 3.79883H7.06889C6.76276 3.79883 6.47054 3.95189 6.27573 4.18845L4.16063 6.9993C4.03539 7.16628 3.96582 7.37501 3.96582 7.58374L3.91016 39.5885H5.8861L5.94176 7.9177L7.55592 5.76086H18.3401L19.7316 7.66723V24.9081L11.9809 24.8941V26.8701L19.7316 26.884V39.5885H21.7076V7.3611C21.7076 7.15237 21.638 6.94365 21.5128 6.77666L19.6342 4.20237C19.4533 3.95189 19.1611 3.79883 18.8411 3.79883Z" fill="white"/>
<path d="M17.6722 22.5842C17.8531 22.4034 17.9644 22.139 17.9644 21.8885L17.8809 8.75262C17.8809 8.20993 17.4357 7.77856 16.893 7.77856H8.87787C8.61348 7.77856 8.36301 7.87597 8.18211 8.07078C8.00121 8.25168 7.88989 8.50215 7.88989 8.76654V26.8562H9.86584V22.8904L16.9904 22.8765C17.2409 22.8765 17.4913 22.7791 17.6722 22.5842ZM9.85192 20.9144V9.7406H15.905L15.9746 20.9005L9.85192 20.9144Z" fill="white"/>
<path d="M25.5621 5.60779L21.8606 0.431369C21.6798 0.166982 21.3736 0.013916 21.0536 0.013916L5.12076 0C4.81463 0 4.52241 0.139152 4.34152 0.389624L0.403538 5.59388C0.278302 5.76086 0.208727 5.96958 0.208727 6.17831L0 42.4133C0 42.956 0.431369 43.4012 0.974058 43.4012L9.04483 43.5265H9.05874C9.32313 43.5265 9.5736 43.4291 9.7545 43.2482C9.94931 43.0673 10.0467 42.8029 10.0467 42.5385L10.0189 30.9194H11.9531L12.0227 43.4152L13.9986 43.4012L13.929 30.9194H15.8632L15.9467 42.4828C15.9467 43.0255 16.392 43.4569 16.9347 43.4569L24.6298 43.4012C25.1724 43.4012 25.6038 42.956 25.6038 42.4133L25.743 6.16439C25.743 5.9835 25.6873 5.77477 25.5621 5.60779ZM23.6418 41.4531L17.9088 41.4949L17.8253 29.9314C17.8253 29.3887 17.38 28.9574 16.8373 28.9574L13.9151 28.9713H12.9271L9.017 28.9852C8.47431 28.9852 8.02902 29.4305 8.02902 29.9732L8.05685 41.5645L1.96203 41.467L2.17076 6.52619L5.62171 1.97595L20.5526 2.00378L23.7809 6.51227L23.6418 41.4531Z" fill="white"/>
</svg>
