<svg width="37" height="62" viewBox="0 0 37 62" fill="none" xmlns="http://www.w3.org/2000/svg">
<path fill-rule="evenodd" clip-rule="evenodd" d="M35.0037 59.8228L24.2681 59.8922L24.1373 42.3914L13.229 42.4198L13.2684 60L2 59.8243L2.30052 9.26596L7.80215 2L30.0332 2.03561L35.1973 9.25424L35.0037 59.8228Z" fill="black" stroke="#FFFF00" stroke-width="2.75153" stroke-miterlimit="22.9256" stroke-linecap="square" stroke-linejoin="round"/>
<path d="M7.50537 54.5106L7.57542 11.2343L10.5172 7.30927H26.9434L29.5625 10.892V54.4959" stroke="white" stroke-width="3.85214" stroke-miterlimit="22.9256" stroke-linecap="square" stroke-linejoin="round"/>
<path d="M28.6736 36.7581L18.7468 36.7485" stroke="white" stroke-width="3.85214" stroke-miterlimit="22.9256" stroke-linecap="square" stroke-linejoin="round"/>
<path d="M13.0272 36.7294V12.8506L24.2105 12.8552L24.3319 31.1736L13.0272 31.1918" stroke="#FFFF00" stroke-width="2.75153" stroke-miterlimit="22.9256" stroke-linecap="square" stroke-linejoin="round"/>
<path d="M18.6831 42.4056L18.788 59.8304" stroke="#FFFF00" stroke-width="2.75153" stroke-miterlimit="22.9256" stroke-linecap="square" stroke-linejoin="round"/>
<path d="M18.6539 18.5885H18.6563" stroke="white" stroke-width="3.85214" stroke-miterlimit="22.9256" stroke-linecap="square" stroke-linejoin="round"/>
<path d="M18.6598 25.038H18.6622" stroke="white" stroke-width="3.85214" stroke-miterlimit="22.9256" stroke-linecap="square" stroke-linejoin="round"/>
<path d="M21.4108 44.8388L21.5157 59.8119" stroke="black" stroke-width="2.75153" stroke-miterlimit="22.9256" stroke-linecap="square" stroke-linejoin="round"/>
<path d="M21.1923 44.8388L21.4631 59.8119" stroke="black" stroke-width="2.75153" stroke-miterlimit="22.9256" stroke-linecap="square" stroke-linejoin="round"/>
<path d="M15.9233 44.8759L16.0282 59.8489" stroke="black" stroke-width="2.75153" stroke-miterlimit="22.9256" stroke-linecap="square" stroke-linejoin="round"/>
</svg>
